<svg xmlns="http://www.w3.org/2000/svg" width="100" height="35" fill="currentColor" viewBox="0 0 100 35">
	<style type="text/css">
		.st0 {fill: url(#SVGID_1_);}
		.st1 {fill: #BE1622;}
		.st2 {fill: #FF8000;}
	</style>
	<g>
		<g>

			<linearGradient id="SVGID_1_" gradientUnits="userSpaceOnUse" x1="-1.2695" y1="372.0368" x2="11.7025" y2="372.0368" gradientTransform="matrix(2.8125 0 0 -2.8125 17.5 1054.25)">
				<stop offset="0" style="stop-color:#FF3C00" />
				<stop offset="0.9" style="stop-color:#FEB805" />
				<stop offset="1" style="stop-color:#FFE82A" />
			</linearGradient>
			<path class="st0" d="M46.7,7.1c-2.6-0.6-5.4-0.7-8-0.1c-6.6,1-13.3-1.6-17.5-7c0.4,3.2,1.7,6.4,4.1,8.7c2.2,2.2,5,3.7,8.1,4.2
					c-4.1-0.1-8-2-10.9-4.9c-3.2-1-6.1-2.6-8.6-5c0.1,0.5,0.2,0.9,0.5,1.4c3.7,9.2,14.3,13.7,23.7,10c1.6-0.6,3.1-1.5,4.5-2.6
					l0.4-0.4c1-0.9,2.1-1.5,3.4-2c1.2-0.5,2.6-0.9,4-1C49.3,7.9,48,7.5,46.7,7.1z" />
			<path class="st1" d="M25.3,8.7c-0.6-0.1-2.2-0.5-2.9-0.6c1.5,1.6,3.4,2.9,5.4,3.7c1.7,0.7,3.6,1.1,5.5,1.2
					C30.3,12.4,27.6,10.9,25.3,8.7z" />
		</g>
		<g>
			<path class="st2" d="M87,21.7c0.1-1.6-0.9-3.2-2.2-4C83,17,81.1,17.1,79.5,18c-1.6,1-2.9,2.5-3.7,4.1c-0.7,1.6-1.2,3.4-1.4,5.1
					c-0.6,6.2,4,6.5,4,6.5c1.7,0.2,3.6-0.2,5-1.4c2.4-2.1,0.4-3.4,0.4-3.4c-0.9-0.6-1.5,0.5-1.5,0.5L82,29.8
					c-0.5,0.5-1.2,0.9-1.9,0.7c-2.5-0.2-1.5-3.5-1.5-3.5C87.5,26.3,87,21.7,87,21.7z M78.7,24.8c0.1-0.4,0.1-0.7,0.2-1.1
					c0.2-1,0.7-1.9,1.2-2.6c1.2-1.2,1.9-0.4,1.9-0.4c1,1.2,0,2.9,0,2.9c-0.7,1.4-2.9,1.6-2.9,1.6C78.6,25.5,78.7,24.8,78.7,24.8
					L78.7,24.8z" />
			<path class="st2" d="M27.3,20.6c0.2,0.7-0.6,1.6-1.9,1.9c-1.2,0.4-2.4,0-2.5-0.6c-0.2-0.7,0.6-1.5,1.7-1.9
					C26,19.5,27.1,19.8,27.3,20.6z" />
			<path class="st2" d="M0,18.8v-0.7c0-0.4,0.2-0.6,0.6-0.7l0,0c0.1,0,0.2,0,0.4,0l2.7,0.9c0.7,0.4,1.1,1.1,1,1.9L4.2,30.2l3.4-9
					L8,20.3c0.2-0.6,1-1.1,1.7-1l3.1,0.6c0,0,1.1,0.2,1,1.7l-0.5,9l4-9.5c0,0,0.4-1.4,1.5-1.1l2,0.4c0,0,1.1,0.2,0.4,1.5l-5.9,10.7
					c-0.4,0.6-1,1-1.6,1.1h-2c0,0-1.9,0.1-1.7-2l0.5-8.6l-3.7,9.5c-0.4,0.7-1.1,1.2-1.9,1.2s-1.5,0-2.2-0.1
					c-0.6-0.1-1.1-0.6-1.4-1.2C1.1,32.2,1,31.8,1,31.4L0,18.8z" />
			<path class="st2" d="M19.8,31.6l-0.1,0.5c-0.1,0.2-0.1,0.6-0.1,0.9c0.1,0.6,0.6,0.7,1.2,0.7l0.9,0.1c0.4,0.1,0.7,0,1-0.1
					c0.4-0.2,0.5-0.6,0.6-1l2.4-7.9c0.2-0.5,0-1-0.5-1.2c-0.1,0-0.2-0.1-0.5-0.1c-0.9,0-2-0.4-2.6,0.5c-0.1,0.2-0.2,0.6-0.4,0.9
					L19.8,31.6z" />
			<path class="st2" d="M27.7,25.1c-0.7,0.6-1.1,1.7-1,2.7c0.2,0.7,0.9,1.1,1.5,1.4c0.6,0.4,1.2,0.6,1.9,0.9c0,0,1,0.5,0.7,1.2
					c-0.2,0.7-0.7,0.6-1.4,0.6c-0.5,0-1,0-1.5-0.2c-0.5-0.1-1-0.2-1.5-0.4c-0.6,0.1-1.1,0.4-1.5,0.9c0,0-0.7,0.9,0.4,1.2
					c0,0,5.1,1.5,7.9-0.4c0.7-0.5,1.2-1.4,1.2-2.2c0,0,0.4-1.9-3.1-3.1c0,0-2.9-1,0.1-2.4c0.5-0.2,1.5-0.2,1.6,0.5
					c0,0.2,0,0.5,0.2,0.6c0.4,0.1,0.7,0.1,1-0.1c0.9-0.4,2.2-0.7,2.2-1.9c0.1-2-3.2-1.7-4.4-1.5C32.1,23,29.1,23.6,27.7,25.1z" />
			<path class="st2" d="M39.3,19.5l-3.6,12.1c0,0-0.6,2.1,0.7,2.2l1.4,0.1c0,0,1,0.1,1.2-1.1c0.1-0.9,0.4-1.6,0.6-2.5
					c0.4-1.5,1-2.9,1.7-4.1c0.5-0.7,1.1-1.2,2-1.6c0.4-0.1,1.1-0.2,1.5,0.1c0.1,0.4,0.2,0.9,0.1,1.2l-1.4,6.1
					c-0.1,0.4-0.1,0.9,0.1,1.2c0.2,0.5,0.6,0.4,1.2,0.5h0.5c0,0,1.4,0.4,1.7-1.4l2.1-8.2c0,0,1.5-4.6-4-3.1
					c-1.4,0.5-2.6,1.2-3.7,2.1l1.4-3.9c0.1-0.5,0.2-1.1-0.4-1.2C42,18,41.4,18,40.9,18.2C40,18.3,39.4,18.8,39.3,19.5z" />
			<path class="st2" d="M58.5,24c0.5,0.1,2.1-1.9,2.4-2.2c1.1-1.4,2.1-4.5,0.6-6.1c-1.1-1.1-3.5-0.5-4.9-0.1h-0.1l-2.7,0.9
					c0,0-1.5,0.4-1.9,2.6l-1.6,7.9c-0.4,1.5-0.7,3-1,4.4c-0.1,0.7,0,1.4,0.4,2c0.4,0.4,1,0.6,1.5,0.6c0,0,7.1,0.7,9.2-4.2
					C60.4,29.4,62.4,25,58.5,24z M56.9,29.2c-0.1,0.2-0.2,0.4-0.4,0.6c-0.2,0.5-0.7,0.9-1.2,1c-0.4,0.1-0.7,0.1-1.1,0.1
					c-0.1,0-0.4,0-0.5,0c-0.2,0-0.5-0.2-0.6-0.6c0-0.4,0-0.6,0.1-1l0.6-2.5c0.1-0.6,0.6-1.1,1.2-1.2c0,0,2-0.7,2.2,1
					C57.3,27.7,57.1,28.4,56.9,29.2L56.9,29.2z M58.1,21.6c-0.1,0.2-0.2,0.4-0.2,0.6c-0.2,0.4-0.6,0.7-1.1,0.9
					c-0.4,0.1-0.7,0.1-1,0.1c-0.1,0-0.2,0-0.5,0c-0.2-0.1-0.5-0.2-0.5-0.5c0-0.2,0-0.6,0.1-0.9l0.5-2.2c0.1-0.5,0.5-1,1.1-1.1
					c0,0,1.7-0.6,2,0.9C58.4,20.1,58.4,20.8,58.1,21.6L58.1,21.6z" />
			<path class="st2" d="M73.2,16.3c-1.7-0.6-3.7-0.4-5.5,0.5c-2.5,1.2-4.4,4.9-4.4,4.9c-0.7,1.7-1.4,3.5-1.6,5.4
					c-1,6.5,4.2,6.9,4.2,6.9c1.9,0.2,3.7-0.2,5.2-1.4c2.5-2.2,0.4-3.5,0.4-3.5c-0.9-0.6-1.6,0.5-1.6,0.5l-0.1,0.2
					c-0.5,0.6-1.2,0.9-2,0.7c-2.5-0.2-1.6-3.4-1.6-3.4c8.9-1.5,9-7,9-7C75.6,17.2,73.2,16.3,73.2,16.3z M70.2,23
					c-0.7,1.4-3,1.7-3,1.7c-0.9,0.2-0.7-0.4-0.7-0.4c0.1-0.4,0.2-0.9,0.4-1.2c0.2-1,0.7-1.9,1.4-2.7c1.2-1.4,2-0.4,2-0.4
					C71.4,21.3,70.2,23,70.2,23z" />
			<path class="st2" d="M85.7,31.9l2.4-11l0.2-1c0.1-0.7,0.7-1.2,1.5-1.2l0,0c0.1,0,0.4,0.1,0.5,0.1c0,0,2,0.7,1.9,2.5
					c0,0,0,0.2,0.4,0c1-0.9,2.4-1.4,3.7-1.1c0,0,2.7,0.4,3.5,2.6c0,0,0.5,0.9-0.1,3.5l-1.6,6.5c-0.1,0.6-0.6,1.1-1.2,1h-0.1
					l-1.4-0.1c0,0-1.4-0.1-1-2l1.2-5.9c0,0,0.5-2-1.4-2.2c0,0-2.1-0.5-2.7,2.2l-1.9,6.9c0,0-0.2,1.4-1.5,1.1l-1.4-0.2
					C86.6,33.7,85.3,33.6,85.7,31.9z" />
		</g>
	</g>
</svg>
